HIERARCHY
ROOT Hips
{
	OFFSET -3.958830 18.904000 13.208200
	CHANNELS 6 Xposition Yposition Zposition Zrotation Yrotation Xrotation 
	JOINT LHipJoint
	{
		OFFSET 0.000000 0.000000 0.000000
		CHANNELS 3 Zrotation Yrotation Xrotation
		JOINT LeftUpLeg
		{
			OFFSET 1.800000 -1.400000 0.085000
			CHANNELS 3 Zrotation Yrotation Xrotation
			JOINT LeftLeg
			{
				OFFSET 2.215000 -6.000000 0.000000
				CHANNELS 3 Zrotation Yrotation Xrotation
				JOINT LeftFoot
				{
					OFFSET 2.500000 -6.900000 0.000000
					CHANNELS 3 Zrotation Yrotation Xrotation
					JOINT LeftToeBase
					{
						OFFSET 0.200000 -0.500000 1.950000
						CHANNELS 3 Zrotation Yrotation Xrotation
						End Site
						{
							OFFSET 0.000000 0.000000 0.000000
						}
					}
				}
			}
		}
	}
	JOINT RHipJoint
	{
		OFFSET 0.000000 0.000000 0.000000
		CHANNELS 3 Zrotation Yrotation Xrotation
		JOINT RightUpLeg
		{
			OFFSET -1.800000 -1.400000 0.085000
			CHANNELS 3 Zrotation Yrotation Xrotation
			JOINT RightLeg
			{
				OFFSET -2.215000 -6.000000 0.000000
				CHANNELS 3 Zrotation Yrotation Xrotation
				JOINT RightFoot
				{
					OFFSET -2.500000 -6.900000 0.000000
					CHANNELS 3 Zrotation Yrotation Xrotation
					JOINT RightToeBase
					{
						OFFSET -0.200000 -0.500000 1.950000
						CHANNELS 3 Zrotation Yrotation Xrotation
						End Site
						{
							OFFSET 0.000000 0.000000 0.000000
						}
					}
				}
			}
		}
	}
	JOINT LowerBack
	{
		OFFSET 0.000000 0.000000 0.000000
		CHANNELS 3 Zrotation Yrotation Xrotation
		JOINT Spine
		{
			OFFSET -0.087000 1.940000 -0.288900
			CHANNELS 3 Zrotation Yrotation Xrotation
			JOINT Spine1
			{
				OFFSET 0.000000 1.950000 0.060000
				CHANNELS 3 Zrotation Yrotation Xrotation
				JOINT Neck
				{
					OFFSET 0.000000 0.000000 0.000000
					CHANNELS 3 Zrotation Yrotation Xrotation
					JOINT Neck1
					{
						OFFSET 0.000000 1.600000 0.340000
						CHANNELS 3 Zrotation Yrotation Xrotation
						JOINT Head
						{
							OFFSET 0.000000 1.667000 -0.240000
							CHANNELS 3 Zrotation Yrotation Xrotation
							End Site
							{
								OFFSET 0.000000 0.000000 0.000000
							}
						}
					}
				}
				JOINT LeftShoulder
				{
					OFFSET 0.000000 0.000000 0.000000
					CHANNELS 3 Zrotation Yrotation Xrotation
					JOINT LeftArm
					{
						OFFSET 2.700000 1.550000 -0.730000
						CHANNELS 3 Zrotation Yrotation Xrotation
						JOINT LeftForeArm
						{
							OFFSET 5.450000 0.000000 0.000000
							CHANNELS 3 Zrotation Yrotation Xrotation
							JOINT LeftHand
							{
								OFFSET 3.450000 0.000000 0.000000
								CHANNELS 3 Zrotation Yrotation Xrotation
								JOINT LeftHandIndex1
								{
									OFFSET 0.750000 0.000000 0.000000
									CHANNELS 3 Zrotation Yrotation Xrotation
									End Site
									{
										OFFSET 0.000000 0.000000 0.000000
									}
								}
							}
						}
					}
				}
				JOINT RightShoulder
				{
					OFFSET 0.000000 0.000000 0.000000
					CHANNELS 3 Zrotation Yrotation Xrotation
					JOINT RightArm
					{
						OFFSET -2.700000 1.550000 -0.730000
						CHANNELS 3 Zrotation Yrotation Xrotation
						JOINT RightForeArm
						{
							OFFSET -5.450000 0.000000 0.000000
							CHANNELS 3 Zrotation Yrotation Xrotation
							JOINT RightHand
							{
								OFFSET -3.450000 0.000000 0.000000
								CHANNELS 3 Zrotation Yrotation Xrotation
								JOINT RightHandIndex1
								{
									OFFSET -0.750000 0.000000 0.000000
									CHANNELS 3 Zrotation Yrotation Xrotation
									End Site
									{
										OFFSET 0.000000 0.000000 0.000000
									}
								}
							}
						}
					}
				}
			}
		}
	}
}
MOTION
Frames: 10
Frame Time: 0.016667
-0.807650 17.180990 -1.648310 -3.590707 15.148102 4.933616 -15.244344 12.481689 3.357682 1.728141 -6.923291 -28.385421 4.432310 5.501177 43.165937 -0.518976 7.145995 2.031376 0.260160 -0.044440 0.159630 18.408533 -9.669569 3.897526 -7.159032 6.660044 -41.533816 7.666469 -9.529849 38.307792 -0.442221 -5.528716 2.358337 0.171650 0.449950 0.131680 -3.883707 -1.888821 -8.135293 9.476204 -4.585266 13.587130 -2.627467 -3.301251 5.682910 1.890233 -0.871553 -7.474540 -2.700020 1.851965 31.736326 -0.766130 0.600620 -14.324240 -30.024631 -16.059361 3.188754 -60.428023 -19.706153 0.781711 -9.138277 -26.244205 -0.930723 -3.903489 2.761249 0.657210 0.194660 -0.149990 0.122050 26.464809 16.463388 4.669119 64.083931 17.406449 -7.036611 12.119680 39.602542 0.167070 1.844643 -1.239538 -0.470190 0.504390 0.247850 -0.270600 
-0.894260 17.202710 -1.731350 -4.353415 11.548113 3.108811 -15.247566 11.947735 4.113213 5.289099 -8.876779 -33.910830 0.354844 9.115892 51.781086 -0.196816 9.182736 1.252014 0.344270 0.045100 0.287910 18.465719 -9.531510 3.640014 -4.778678 7.180367 -39.309982 5.124809 -9.645270 43.007845 -0.669168 -6.046787 2.160188 0.204080 0.320800 0.127150 -3.887655 -1.685127 -8.588558 11.154916 -3.803877 17.112192 -2.974718 -1.707770 7.475889 2.353600 -0.706397 -9.056191 -2.864835 1.184759 34.990654 -1.402330 0.733090 -18.186370 -28.137712 -19.543964 4.229348 -59.433831 -21.782016 -0.747041 -11.300497 -33.041240 -0.532091 -3.777105 2.740074 0.779490 0.094630 -0.023700 0.087820 23.476623 20.317330 6.477532 63.310412 18.338858 -9.674084 14.572795 47.070014 0.753792 1.795764 -1.240777 -0.455370 0.528940 0.212580 -0.321360 
-0.987380 17.191330 -1.808770 -4.410291 6.744110 2.189494 -15.303372 11.295253 4.900336 10.124842 -9.603202 -39.378723 -6.385528 14.913278 56.981355 0.199648 11.238813 0.542330 0.398640 0.105300 0.360710 18.512940 -9.262518 3.450505 -2.286928 8.093806 -37.945108 1.052899 -8.605778 47.814946 -0.853176 -6.511369 2.008694 0.230420 0.246780 0.110000 -3.802228 -1.460229 -9.002291 11.701569 -2.343890 20.153712 -2.870021 0.583966 8.668764 2.368627 -0.807073 -10.113517 -3.435557 0.486296 36.803088 -1.275160 0.369930 -20.563050 -26.120742 -20.974757 4.560923 -58.540920 -23.992885 -1.268392 -17.696790 -42.590117 2.002021 -3.703788 2.759530 0.846720 0.029010 0.045300 0.075980 21.291602 22.485538 7.921175 61.718107 18.078476 -12.190555 18.789967 57.812790 2.697541 1.746989 -1.295855 -0.450960 0.552720 0.182340 -0.345980 
-1.070700 17.158140 -1.883950 -3.868794 2.411097 1.041057 -15.343065 10.852437 5.495252 14.041634 -9.059315 -43.069022 -12.542258 19.108363 56.523265 0.392509 12.176362 0.187912 0.477710 0.198730 0.407120 18.534120 -9.182970 3.225509 -1.151829 8.476111 -35.601900 -2.259658 -7.358095 50.989386 -1.009992 -6.854224 1.872656 0.265020 0.155050 0.126590 -3.757405 -1.204720 -9.230289 12.168070 -0.990503 23.386065 -3.481533 2.927281 9.775127 2.427772 -1.143168 -10.816113 -4.350693 -0.128542 37.695160 -0.295170 -0.346100 -23.783840 -24.547387 -21.869659 4.360962 -55.377051 -26.221172 -0.946634 -25.930679 -51.040463 6.836849 -3.634581 2.859969 0.900480 -0.047980 0.116440 0.067780 19.425577 24.243244 9.214778 59.201670 17.657832 -13.859801 23.971093 69.489129 6.226932 1.704189 -1.396081 -0.403660 0.523070 0.158450 -0.354030 
-1.150130 17.089550 -1.946230 -2.709076 -1.774039 0.327774 -15.376689 10.622669 5.874500 16.583941 -7.798232 -45.474942 -17.445088 20.769614 51.942817 0.398715 12.094354 0.206320 0.480470 0.209720 0.375840 18.529634 -9.231430 3.013971 -1.052142 8.560583 -33.396154 -5.173944 -5.721946 51.980867 -1.041387 -6.903075 1.869928 0.256410 0.164950 0.142480 -3.708623 -0.991461 -9.282500 11.743363 0.238246 25.957127 -3.696495 4.714126 10.436852 2.112911 -1.790524 -11.149193 -5.487109 -0.266286 37.293179 1.070420 -1.050330 -25.068430 -22.572535 -21.329274 4.235750 -53.066512 -26.865980 -0.615045 -37.069119 -61.882616 15.665055 -3.636518 2.966604 0.895230 -0.060550 0.122960 0.082290 17.996823 24.815422 9.800663 56.565533 18.165192 -12.954813 32.817260 79.661477 13.963013 1.724993 -1.487030 -0.379160 0.516000 0.160060 -0.325090 
-1.235440 16.996790 -1.985890 -1.821621 -5.895689 0.057573 -15.419889 10.559750 6.071157 18.677508 -5.892116 -47.115926 -20.088676 19.811742 44.952966 0.222329 11.177730 0.487911 0.471280 0.227100 0.342460 18.496185 -9.363926 2.820859 -0.920865 8.515977 -30.819421 -7.267343 -4.104131 50.812065 -0.987100 -6.674231 1.971387 0.248710 0.190730 0.166200 -3.612555 -0.814181 -9.208113 10.941345 2.025962 27.447136 -2.941361 6.632971 11.321514 1.817658 -1.950670 -11.269655 -5.337597 -0.448099 35.576703 0.616550 -0.931450 -24.904200 -21.328204 -20.732170 3.925384 -49.832564 -27.447207 0.424448 -49.395646 -69.758688 27.359819 -3.706311 3.064141 0.825220 -0.024960 0.107690 0.101310 17.291735 25.018572 10.347606 53.103373 18.781642 -8.592733 -124.865345 87.619693 -143.174161 2.074008 -1.249033 -0.338990 0.488410 0.147780 -0.287090 
-1.325010 16.873510 -2.007060 -0.093097 -6.492979 -0.351810 -15.447149 10.817581 6.074806 17.935826 -5.929946 -48.017848 -19.342879 15.878569 36.866177 -0.219357 9.452755 1.080858 0.355440 0.087860 0.247270 18.406826 -9.709368 2.484734 -2.921051 7.052255 -28.319668 -7.620048 -3.873762 48.376306 -0.818797 -6.383222 2.096989 0.208920 0.321070 0.154430 -3.420385 -0.972408 -8.952991 8.659197 3.130171 28.319260 -1.318280 7.203372 11.860495 1.076792 -1.694846 -11.103488 -4.433059 -0.932226 33.008221 0.863490 -1.146210 -23.482480 -19.695297 -20.156014 3.965583 -46.346689 -28.345583 3.583333 -76.253696 -79.464354 54.050556 -4.134196 2.656056 0.783770 0.062660 0.003300 0.094770 17.246467 24.637522 10.307357 49.800377 18.094632 -13.423038 -178.668513 79.510700 165.750703 1.548161 -1.300611 -0.417580 0.536380 0.225320 -0.280450 
-1.391480 16.739700 -2.056330 0.695581 -6.200837 -0.179867 -15.415587 11.113091 5.905593 16.002316 -6.082662 -49.123383 -14.596708 10.803697 28.281146 -0.685165 7.051022 1.932327 0.295130 0.022860 0.182810 18.365678 -9.985951 2.342796 -4.677472 6.071673 -27.020030 -6.426208 -4.515266 46.523833 -0.685116 -6.225168 2.147537 0.198970 0.403340 0.160310 -3.385019 -1.161016 -8.690206 8.127817 3.051424 29.203672 -0.506317 6.942062 11.714920 0.498331 -1.773898 -10.550398 -4.032743 -0.820850 29.910441 0.826620 -0.937490 -21.998300 -19.207663 -19.532948 2.831597 -41.303933 -27.805705 0.444155 -127.955357 -77.626459 108.253005 -3.912540 1.982810 0.704670 0.133780 -0.083170 0.092290 17.788823 23.487607 10.268479 44.802610 17.813390 -9.679308 -158.291234 70.066462 -168.898604 1.652100 -1.568781 -0.440960 0.528370 0.266260 -0.262950 
-1.439070 16.608160 -2.091330 0.908322 -5.317714 -0.110758 -15.299943 11.323363 5.584018 13.057304 -6.046643 -48.863645 -8.709563 6.165507 17.346276 -1.001751 4.453005 2.930193 0.263160 0.006490 0.110280 18.392415 -10.295986 2.333965 -6.226214 5.467884 -26.112383 -4.066875 -5.885010 45.756132 -0.638676 -6.339158 2.122466 0.188730 0.468870 0.186720 -3.577933 -1.007623 -8.490297 9.897033 2.079770 29.789583 -1.498632 6.307880 11.940618 0.537769 -1.978878 -10.493834 -3.906630 -1.196476 27.641382 0.135200 -1.191200 -20.440640 -18.807772 -19.183114 2.814244 -35.659937 -27.089214 1.318624 -166.591141 -74.007179 153.086107 -3.770680 2.885119 0.623400 0.199430 -0.138490 0.119390 17.248525 22.918360 10.359235 41.847354 17.450829 -7.973379 -152.791373 61.687814 -157.777458 1.700964 -1.623507 -0.423250 0.501140 0.278890 -0.223410 
-1.480150 16.513350 -2.133230 0.618861 -4.153444 -0.711251 -15.215283 11.368090 5.402019 10.270708 -6.160717 -48.013330 -3.569628 3.241751 5.959258 -1.133846 2.864435 3.588804 0.232880 -0.023110 0.081280 18.428146 -10.428417 2.324100 -7.571973 5.083419 -25.233645 -1.029437 -7.685684 45.568153 -0.664147 -6.581591 2.055818 0.161420 0.495680 0.196430 -3.750124 -0.889796 -8.457846 12.189761 0.469433 31.903094 -2.933626 5.466123 11.902862 1.025553 -1.993204 -10.741280 -3.653658 -1.261996 26.578000 -0.330750 -0.812670 -20.485970 -19.102315 -19.723591 3.160081 -30.189578 -25.596116 1.031064 173.491687 -67.661006 178.842675 -3.826216 3.082022 0.603100 0.219850 -0.150390 0.132730 16.577882 23.059852 10.503059 39.000494 16.649532 -8.178519 -150.117506 55.258117 -149.907387 1.737427 -1.598551 -0.421070 0.494320 0.279940 -0.208570 
